<svg width="24" height="29" viewBox="0 0 24 29" fill="none" xmlns="http://www.w3.org/2000/svg">
<path d="M11 5.11267H4C3.46957 5.11267 2.96086 5.35702 2.58579 5.79196C2.21071 6.22691 2 6.81682 2 7.43192V23.6667C2 24.2818 2.21071 24.8717 2.58579 25.3066C2.96086 25.7416 3.46957 25.9859 4 25.9859H18C18.5304 25.9859 19.0391 25.7416 19.4142 25.3066C19.7893 24.8717 20 24.2818 20 23.6667V15.5493" stroke="black" stroke-width="2" stroke-linecap="round" stroke-linejoin="round"/>
<path d="M18.5 3.37327C18.8978 2.91194 19.4374 2.65277 20 2.65277C20.5626 2.65277 21.1022 2.91194 21.5 3.37327C21.8978 3.8346 22.1213 4.46029 22.1213 5.11271C22.1213 5.76512 21.8978 6.39082 21.5 6.85214L12 17.8686L8 19.0282L9 14.3897L18.5 3.37327Z" stroke="black" stroke-width="2" stroke-linecap="round" stroke-linejoin="round"/>
</svg>
