<svg width="24" height="28" viewBox="0 0 24 28" fill="none" xmlns="http://www.w3.org/2000/svg">
<path d="M16 24.4836V22.1643C16 20.9341 15.5786 19.7543 14.8284 18.8844C14.0783 18.0145 13.0609 17.5258 12 17.5258H6C4.93913 17.5258 3.92172 18.0145 3.17157 18.8844C2.42143 19.7543 2 20.9341 2 22.1643V24.4836" stroke="black" stroke-width="2" stroke-linecap="round" stroke-linejoin="round"/>
<path d="M9 12.8873C11.2091 12.8873 13 10.8106 13 8.24885C13 5.68708 11.2091 3.61035 9 3.61035C6.79086 3.61035 5 5.68708 5 8.24885C5 10.8106 6.79086 12.8873 9 12.8873Z" stroke="black" stroke-width="2" stroke-linecap="round" stroke-linejoin="round"/>
<path d="M22 24.4836V22.1643C21.9993 21.1366 21.7044 20.1382 21.1614 19.3259C20.6184 18.5137 19.8581 17.9335 19 17.6766" stroke="black" stroke-width="2" stroke-linecap="round" stroke-linejoin="round"/>
<path d="M16 3.76111C16.8604 4.01657 17.623 4.59685 18.1676 5.41045C18.7122 6.22406 19.0078 7.22471 19.0078 8.25465C19.0078 9.2846 18.7122 10.2852 18.1676 11.0989C17.623 11.9125 16.8604 12.4927 16 12.7482" stroke="black" stroke-width="2" stroke-linecap="round" stroke-linejoin="round"/>
</svg>
